<svg width="400" height="400" viewBox="0 0 400 400" fill="none" xmlns="http://www.w3.org/2000/svg">
<path d="M194.251 187.116C191.638 166.212 194.251 151.057 190.593 131.198C206.271 140.605 223.517 146.876 238.672 149.489C238.672 160.986 241.415 174.507 246.511 184.503C260.099 211.156 278.912 213.246 290.932 231.015C296.942 239.899 296.158 251.396 294.59 255.577C289.364 255.577 285.706 257.667 279.958 259.235C272.641 261.23 262.189 262.37 251.737 262.37C236.546 262.37 228.22 267.596 220.381 271.777C220.904 261.848 219.728 248.783 216.201 236.241C211.497 219.517 196.565 205.625 194.251 187.116Z" fill="#38BF45" stroke="black" stroke-width="6" stroke-linejoin="round"/>
<path d="M237.627 250.351C236.582 245.125 232.401 239.899 228.22 238.331C226.653 231.014 223.517 222.653 218.814 214.814C214.11 206.975 207.524 197.651 206.794 188.161C205.749 174.574 206.271 164.644 204.181 156.283C207.839 156.283 209.929 151.579 209.929 148.444C213.588 149.489 218.814 152.102 225.607 153.67C225.085 159.418 228.22 164.122 232.924 165.167C232.924 173.529 233.343 180.638 238.672 191.297C243.115 200.181 250.17 210.111 259.054 216.904C267.938 223.698 274.732 226.311 280.48 234.673C274.732 235.718 272.119 240.944 272.641 246.17C266.37 245.647 265.848 248.26 256.963 248.26C252.26 248.26 249.124 248.26 245.989 249.305C244.421 249.828 241.808 250.873 237.627 250.351Z" fill="white" stroke="black" stroke-width="4" stroke-linecap="round" stroke-linejoin="round"/>
<path d="M238.672 218.995C238.1 219.281 237.508 219.499 236.903 219.649C234.536 213.453 231.378 207.012 228.22 201.749C227.486 200.525 226.727 199.289 225.971 198.028C224.406 197.616 222.726 197.289 220.904 197.046C213.065 196 212.542 184.503 217.768 181.89C218.224 181.662 218.663 181.482 219.085 181.343C220.117 187.763 223.011 193.085 225.971 198.028C231.143 199.39 235.062 201.675 238.672 204.885C243.376 209.065 242.853 216.904 238.672 218.995Z" fill="white"/>
<path d="M225.607 214.814C229.266 219.517 234.492 221.085 238.672 218.995C242.853 216.904 243.376 209.065 238.672 204.885C233.969 200.704 228.743 198.091 220.904 197.046C213.065 196 212.542 184.503 217.768 181.89C221.949 179.8 224.736 181.716 225.607 182.935M239.718 228.402C237.627 220.04 232.924 209.588 228.22 201.749C223.517 193.91 217.768 185.548 218.814 173.529" stroke="black" stroke-width="5" stroke-linecap="round" stroke-linejoin="round"/>
</svg>
