<svg width="400" height="400" viewBox="0 0 400 400" fill="none" xmlns="http://www.w3.org/2000/svg">
<path d="M171.78 256.622C166.554 254.009 158.715 249.306 149.308 238.854C152.966 236.763 157.147 232.06 161.328 228.924C167.076 232.582 169.705 233.513 175.438 234.15C180.141 234.673 185.367 234.15 189.026 232.582C186.413 237.286 186.437 240.82 185.367 246.17C184.322 251.396 183.8 254.009 181.187 258.19C178.051 258.19 175.438 257.667 171.78 256.622Z" fill="#38BF45" stroke="black" stroke-width="3" stroke-linecap="round" stroke-linejoin="round"/>
<path d="M161.328 236.241C160.805 237.286 158.715 239.376 158.192 239.899C159.237 243.034 162.765 244.602 165.509 246.17C169.167 248.26 170.212 250.351 174.915 251.919C175.438 250.873 176.483 249.828 179.096 250.351C179.619 247.215 181.709 244.08 182.232 241.467C180.664 241.467 179.619 239.899 179.619 238.854C172.825 238.854 168.122 237.286 165.509 236.241C164.463 237.286 162.373 236.763 161.328 236.241Z" fill="white" stroke="black" stroke-width="2" stroke-linecap="round" stroke-linejoin="round"/>
<path d="M171.257 245.647C171.78 245.647 172.597 244.892 172.825 244.08M166.031 239.899C165.49 240.169 165.194 240.545 165.08 240.944M172.825 244.08C173.024 243.371 172.738 242.229 171.78 241.989C169.689 241.467 168.644 243.034 167.076 243.034C165.851 243.034 164.752 242.087 165.08 240.944M172.825 244.08C173.347 244.602 174.915 245.647 174.915 245.647M165.08 240.944C164.463 240.944 163.418 240.421 162.896 239.899" stroke="black" stroke-width="2" stroke-linecap="round" stroke-linejoin="round"/>
<path d="M324.379 97.7518C317.062 108.726 314.972 119.701 313.927 131.721L313.927 131.721C305.565 127.54 302.429 125.972 298.771 124.927C295.113 123.882 294.068 124.927 290.41 123.359C290.41 121.269 290.41 116.565 293.023 107.681C295.636 98.797 302.429 92.5259 308.701 89.3903C310.791 90.9581 310.791 90.9581 313.927 92.5259C317.062 94.0937 321.243 95.1388 324.379 97.7518Z" fill="#38BF45" stroke="black" stroke-width="3" stroke-linecap="round" stroke-linejoin="round"/>
<path d="M305.042 97.7519C301.907 100.365 296.681 109.772 295.113 117.088C296.681 117.611 297.726 118.551 297.726 120.224C300.862 120.224 303.997 121.791 306.088 122.837C307.133 121.269 308.701 120.746 310.791 120.746C310.268 113.952 314.449 106.636 317.585 101.933C316.017 101.933 315.494 99.8423 316.017 98.2745C314.449 97.7519 311.314 96.1841 309.223 96.1841C308.178 97.7519 306.61 97.7519 305.042 97.7519Z" fill="white" stroke="black" stroke-width="2" stroke-linecap="round" stroke-linejoin="round"/>
<path d="M302.429 113.952C304.52 114.998 307.133 116.043 308.178 112.907C309.223 109.772 305.565 109.249 304.52 107.159C303.475 105.068 306.61 101.933 309.746 105.068M309.223 100.887C307.655 102.978 306.872 106.636 305.565 109.249C304.259 111.862 304.52 114.783 303.475 117.088" stroke="black" stroke-width="2" stroke-linecap="round" stroke-linejoin="round"/>
</svg>
