<svg width="400" height="400" viewBox="0 0 400 400" fill="none" xmlns="http://www.w3.org/2000/svg">
<path d="M92.3447 166.735C97.8055 174.623 105.41 178.232 114.816 178.232C104.887 186.594 96.0029 186.071 86.0735 192.342C75.9783 198.718 66.2147 201.226 56.8079 203.317C52.1045 201.749 45.4431 197.219 43.7429 186.594C41.6526 173.529 45.3107 166.735 36.4266 152.625C30.6324 143.422 22.3164 136.947 15 132.243C29.6328 132.243 48.9689 123.359 56.8079 123.359C64.6469 123.359 68.8277 123.359 77.1893 132.243C88.0102 143.74 82.9379 153.147 92.3447 166.735Z" fill="#38BF45" stroke="black" stroke-width="4" stroke-linejoin="round"/>
<path d="M89.7316 183.458C78.7571 185.548 70.9181 189.729 63.6017 193.387C60.9887 190.252 57.3305 190.252 54.1949 191.82C53.6723 190.949 52.4181 188.475 51.5819 183.458C50.5367 177.187 51.0593 169.87 48.9689 162.031C46.8785 154.193 41.1299 147.399 35.3813 141.65C37.4717 141.128 37.9943 138.515 36.4265 135.902C43.7429 135.902 47.4011 130.153 54.1949 130.153C56.8079 132.243 60.4661 132.243 62.5565 130.153C64.6469 131.198 68.8277 132.243 74.0537 141.65C79.2797 151.057 76.6667 157.154 82.9379 166.212C86.1941 170.916 91.2994 174.051 92.3446 178.232C90.7768 179.277 89.7316 181.368 89.7316 183.458Z" fill="white" stroke="black" stroke-width="3" stroke-linejoin="round"/>
<path d="M61.5113 145.308C57.3305 145.308 52.9734 148.047 55.2401 153.147C57.3304 157.851 63.079 154.715 67.2599 159.941C70.9945 164.609 67.7825 170.393 65.1695 171.961C62.5565 173.529 59.4209 173.529 57.3305 170.393M65.692 176.664C62.0339 167.78 62.0339 161.509 62.0339 156.283C62.0339 149.888 59.4209 146.354 55.7627 141.65" stroke="black" stroke-width="4" stroke-linecap="round" stroke-linejoin="round"/>
<path d="M155.057 331.354C158.715 343.896 167.076 355.393 177.006 362.71C179.096 358.006 183.277 353.419 186.935 350.167C191.638 345.986 195.819 344.941 199.477 341.806L199.477 341.806C202.676 339.064 206.794 335.534 209.929 334.489C205.749 333.444 197.91 328.741 195.819 321.424C191.937 307.837 189.548 299.998 182.754 294.249C175.96 288.501 172.302 285.888 163.418 283.797C159.237 285.365 156.102 285.888 150.876 287.455C145.65 289.023 143.559 287.978 138.856 290.591C141.992 293.727 145.65 296.339 149.831 306.269C154.512 317.389 151.398 318.811 155.057 331.354Z" fill="#38BF45" stroke="black" stroke-width="4" stroke-linecap="round" stroke-linejoin="round"/>
<path d="M160.805 314.63C163.941 321.424 164.986 333.967 171.78 343.896C174.393 342.851 177.006 343.896 178.574 345.986C180.664 343.896 187.98 339.715 191.639 337.625C189.548 335.534 190.071 331.876 192.161 330.308C191.116 328.741 189.026 326.128 186.413 320.379C183.8 314.63 184.322 309.404 181.187 304.179C178.051 298.953 174.915 295.817 168.644 291.636C166.554 293.727 162.896 292.681 160.805 291.114C159.237 291.636 155.579 292.681 152.966 294.249C154.534 296.34 155.579 299.998 154.011 302.088C156.102 304.701 157.67 307.837 160.805 314.63Z" fill="white" stroke="black" stroke-width="3" stroke-linecap="round" stroke-linejoin="round"/>
<path d="M168.644 322.992C170.212 326.128 175.961 329.263 179.619 324.037C183.277 318.811 175.438 313.063 171.257 313.063C166.005 313.063 163.418 305.746 170.212 303.133M166.031 299.475C168.644 304.178 171.098 309.451 171.78 311.495C174.393 319.334 174.393 327.173 177.006 331.354" stroke="black" stroke-width="4" stroke-linecap="round" stroke-linejoin="round"/>
<path d="M299.816 343.373C293.545 333.967 289.887 317.766 291.977 304.178C310.269 303.133 319.675 305.746 337.444 305.746C337.444 312.017 336.485 319.856 343.192 331.354C352.338 347.032 366.709 352.78 374.548 364.277C382.32 375.677 381.864 385.181 385 392.498C373.503 389.362 355.212 391.975 348.941 392.498C342.67 393.02 335.353 395.633 329.605 395.633C329.605 393.02 330.65 388.317 325.424 375.774C320.198 363.232 306.088 352.78 299.816 343.373Z" fill="#38BF45" stroke="black" stroke-width="5" stroke-linecap="round" stroke-linejoin="round"/>
<path d="M310.791 343.896C304.52 335.012 302.952 327.173 300.862 317.766C303.475 316.721 305.042 315.153 305.042 312.54C308.178 312.54 311.836 313.585 314.972 313.585C318.107 313.585 320.72 313.062 324.901 313.585C324.901 316.721 327.514 319.856 330.65 320.379C332.218 327.173 334.308 331.876 340.057 341.283C346.15 351.254 354.167 355.916 362.528 362.187C370.646 368.275 372.458 373.162 374.548 378.91C371.935 378.91 369.322 381.001 369.845 383.614C368.277 384.659 368.277 383.614 362.528 383.614C356.78 383.614 348.418 384.136 343.715 385.181C343.192 382.568 339.011 382.046 335.876 382.568C335.876 381.523 334.943 377.066 334.308 375.252C330.65 364.8 317.286 353.097 310.791 343.896Z" fill="white" stroke="black" stroke-width="4" stroke-linecap="round" stroke-linejoin="round"/>
<path d="M320.497 330.507C325.502 337.287 329.681 350.477 332.825 354.844C335.34 358.337 337.942 361.083 339.57 362.997M329.435 357.346C332.854 359.576 339.022 358.326 338.412 353.135C337.62 346.388 330.751 346.142 325.439 345.713C320.658 345.327 319.029 339.52 321.228 336.736C323.427 333.952 327.07 335.699 328.616 336.921" stroke="black" stroke-width="4" stroke-linecap="round" stroke-linejoin="round"/>
<path d="M94.9576 37.653C88.6864 28.2462 87.1187 18.3167 89.209 4.72916C108.477 0.301534 124.223 5.77432 143.037 5.77439C143.037 12.0455 143.037 18.8394 146.172 26.1558C151.996 39.7433 166.784 49.15 171.78 62.2151C176.775 75.2802 185.367 78.4156 187.98 86.7772C175.96 94.0936 164.463 90.9581 144.605 98.2745C138.402 100.56 120.565 103.501 113.249 101.933C109.068 96.1841 106.101 87.1634 108.023 73.7124C109.292 64.8282 101.229 47.0598 94.9576 37.653Z" fill="#38BF45" stroke="black" stroke-width="5" stroke-linecap="round" stroke-linejoin="round"/>
<path d="M105.932 41.3111C101.229 32.9495 97.5707 25.1105 97.5707 19.362C100.184 18.3168 101.751 15.9508 101.751 13.3376C104.887 13.3376 111.158 14.136 114.294 14.136C117.429 14.136 127.291 14.9343 131.017 14.136C131.017 17.2716 131.54 19.8846 134.675 20.4071C134.675 27.2009 135.162 31.3578 139.901 41.3111C145.127 52.2857 151.398 54.3761 158.715 62.2151C165.638 69.6331 167.076 72.6671 169.167 78.4156C166.554 78.4156 164.463 82.0738 165.509 84.4111C160.283 84.4111 153.418 85.3576 147.74 86.2546C139.379 87.5755 134.675 92.0032 126.904 92.0032C125.268 87.2998 120.042 83.8885 116.907 84.4111C115.339 81.0286 115.862 73.7123 115.862 70.0541C115.862 58.9804 111.454 51.1274 105.932 41.3111Z" fill="white" stroke="black" stroke-width="4" stroke-linecap="round" stroke-linejoin="round"/>
<path d="M117.17 29.6719C123.08 37.6778 126.782 53.9225 130.494 59.0795C133.464 63.205 138.501 67.7941 140.424 70.0541M123.006 62.7377C131.728 68.0411 137.884 61.5452 137.288 56.4665C136.353 48.4979 129.28 48.1356 123.006 47.6292C117.36 47.1734 115.436 40.3151 118.033 37.0275C120.63 33.7399 124.932 35.8034 126.758 37.2461" stroke="black" stroke-width="4" stroke-linecap="round" stroke-linejoin="round"/>
</svg>
