<svg width="374" height="374" viewBox="0 0 374 374" fill="none" xmlns="http://www.w3.org/2000/svg">
<path d="M190 371C289.987 371 371 289.263 371 188.488C371 87.7131 289.987 5.97559 190 5.97559C90.0126 5.97559 9 87.7131 9 188.488C9 289.263 90.0126 371 190 371Z" fill="#F4C12B" stroke="#BB6125" stroke-width="6"/>
<path d="M339.8 177.534C339.445 183.923 339.8 199.735 338.115 208.493C332.16 239.451 323.062 265.496 305.34 286.135C294.466 298.798 286.863 308.628 275.311 317.585C266.296 324.574 254.143 328.887 244.297 334.839C227.559 344.959 197.8 349.5 173.9 351C150 352.5 128.5 344.5 107.034 336.5C71.4713 323.247 37.7553 300.5 23.5 267C13.5 243.5 8 209.609 8 179.5C8 150.406 15.0081 126.504 27.3744 102.5C32.4011 92.7425 38.3133 80.0464 45 71.5263C61 46 90.5 30.5 120 17.2545C136.9 11.2561 159.632 8.5 178.5 8.5C213.196 8.5 241 19.1808 268.419 36.9928C299.433 57.1404 319.616 91.0473 332.16 127.903C338.115 145.399 340.785 159.844 339.8 177.534Z" fill="#F7D328"/>
<path fill-rule="evenodd" clip-rule="evenodd" d="M117.019 9.82367L117.324 9.7153C135.36 3.31353 159.07 0.5 178.5 0.5C215.092 0.5 244.388 11.8417 272.777 30.2841C305.886 51.7929 326.889 87.5865 339.734 125.325C345.933 143.539 348.843 159.026 347.788 177.979C347.692 179.708 347.654 182.025 347.609 184.827C347.573 187.048 347.532 189.574 347.453 192.352C347.288 198.174 346.951 204.913 345.971 210.004C339.908 241.527 330.454 269.167 311.41 291.346C309.782 293.241 308.209 295.098 306.667 296.919C298.207 306.904 290.674 315.796 280.212 323.907C275.035 327.921 269.129 331.04 263.691 333.757C262.475 334.364 261.29 334.949 260.132 335.52C255.887 337.613 252.018 339.519 248.436 341.685C238.916 347.441 226.252 351.331 213.404 353.986C200.419 356.67 186.614 358.218 174.401 358.984C148.768 360.593 125.877 352.061 104.811 344.209L104.24 343.996C67.7801 330.409 31.6405 306.562 16.1388 270.132C5.59931 245.365 0 210.337 0 179.5C0 148.942 7.40583 123.793 20.2626 98.8362C21.051 97.306 21.8857 95.6492 22.7632 93.9076C27.093 85.3137 32.4639 74.6534 38.4441 66.9241C55.9256 39.3231 87.4736 23.0894 116.723 9.95638L117.019 9.82367ZM45 71.5263C39.4617 78.5831 34.4548 88.5047 30.0421 97.2486C29.1271 99.0617 28.2377 100.824 27.3744 102.5C15.0081 126.504 8 150.406 8 179.5C8 209.609 13.5 243.5 23.5 267C37.7553 300.5 71.4713 323.247 107.034 336.5C128.5 344.5 150 352.5 173.9 351C197.8 349.5 227.559 344.959 244.297 334.839C248.203 332.478 252.471 330.375 256.764 328.26C263.291 325.044 269.872 321.801 275.311 317.585C285.059 310.027 291.995 301.847 300.458 291.867C302.024 290.02 303.642 288.112 305.34 286.135C323.062 265.496 332.16 239.451 338.115 208.493C339.317 202.247 339.481 192.415 339.605 184.971C339.655 181.976 339.698 179.367 339.8 177.534C340.785 159.844 338.115 145.399 332.16 127.903C319.616 91.0473 299.433 57.1404 268.419 36.9928C241 19.1808 213.196 8.5 178.5 8.5C159.632 8.5 136.9 11.2561 120 17.2545C90.5 30.5 61 46 45 71.5263Z" fill="#F1A726"/>
<path d="M322.5 180C322.5 204.141 314.5 232 308 248.5C297.755 274.506 275.01 300.415 246 315.5C221 328.5 203 334 174.5 334C146 334 125.007 324.822 105.5 315.5C81 303.793 57.8477 286.5 43 259.5C30.4441 236.668 26 208.537 26 180C26 146.104 40.3257 121 53.5 94.5C60.46 80.5 73.5 65 90 55C120.525 36.5 140.617 27.5 174.5 27.5C195.176 27.5 215 32.5 236.5 38.5C258 44.5 283 69.5 297.5 97C309.577 119.904 321.676 151.653 322.5 180Z" fill="#F4C12B"/>
<path d="M16 178.5C15 186 8 192 8 182C8 172 8 157 10 146.5C12.3686 134.065 17.5 120.5 22.5 111.5C27.5 102.5 30.5 122 26.5 134C22.5 146 16 149.5 14.5 157C13 164.5 17 171 16 178.5Z" fill="#FFFDE7"/>
<path d="M145.215 128.698C145.215 122.382 146.793 114.488 153.109 109.752C169.423 108.173 203.947 105.647 211.525 108.173C220.998 111.33 236.787 119.225 249.417 128.698C262.048 138.171 263.627 149.222 265.206 155.538C266.784 161.853 265.206 183.957 263.627 190.272C262.048 196.587 260.469 202.903 255.733 210.797C257.311 220.27 254.154 247.11 250.996 259.741C247.838 272.371 247.839 294.475 247.839 303.948C247.839 313.421 232.84 316.578 224.156 313.421C215.472 310.263 203.631 313.421 191.001 316.578C178.37 319.736 156.266 335.524 153.109 333.946C149.951 332.367 149.951 327.63 154.687 321.315C159.424 315 167.318 307.106 172.055 302.369C176.791 297.633 176.791 296.054 176.791 292.896C176.791 289.738 172.055 281.844 170.476 280.265C168.897 278.687 170.476 273.95 170.476 269.833C164.215 270.286 158.157 269.53 153.109 270.792C146.793 272.371 137.32 280.265 132.584 278.687C127.847 277.108 118.374 277.108 115.217 275.529C112.059 273.95 102.586 266.056 101.007 262.898C99.4284 259.741 104.165 253.425 107.323 250.268C110.48 247.11 119.953 247.11 121.532 245.531C123.111 243.952 121.532 239.216 121.532 236.058C116.796 234.479 115.217 228.164 118.374 224.039C114.733 221.343 116.168 217.263 118.374 213.954C120.9 210.165 127.847 210.271 131.005 210.797C132.584 207.639 134.645 204.481 131.005 203.268C126.269 201.689 126.268 204.481 121.532 204.481C116.796 204.481 108.901 199.745 105.744 195.008C102.586 190.272 118.374 179.22 121.532 174.484C124.69 169.747 127.847 166.589 131.005 163.432C134.163 160.274 140.478 152.38 143.636 147.644C146.793 142.907 145.215 135.013 145.215 128.698Z" fill="#F7D328"/>
<path d="M115.217 275.529C112.059 273.95 102.5 266 101.007 262.898C99.5144 259.796 98.8806 265.792 100.5 272C102.119 278.208 111.5 281.5 116.5 289C119.356 293.283 132.584 295 136.5 295.5C140.416 296 149.5 295.5 155 295C160.5 294.5 170.476 298.5 180 295.5C189.524 292.5 194.5 282.5 203 280C211.5 277.5 220 276.5 227.314 269.833C234.627 263.167 236 250.268 237 242.5C237.8 236.286 225.627 215.17 227.314 226.585C229 238 225.735 250.268 220.998 255.004C216.262 259.741 205.21 261.319 198.895 262.898L170.476 269.833C164.215 270.286 158.157 269.53 153.109 270.792C146.793 272.371 137.32 280.265 132.584 278.686C127.847 277.108 118.374 277.108 115.217 275.529Z" fill="#F1A726"/>
<path d="M191.001 316.578C178.37 319.736 156.266 335.524 153.109 333.946C149.951 331.797 144.209 328.789 146.5 333.946C149.364 340.391 155 345 161 347.5C167 350 177 349.5 184 347.5C191 345.5 213.5 343.5 220.998 345C228.497 346.5 237 342 243 339.5C249 337 255.733 332 260.5 329C265.267 326 269 320.5 270.5 316.578C272 312.657 274 303.948 272.5 295C271 286.052 272 268 272.5 262.898C273 257.796 279 248 279.5 241.5C280 235 280 221 277.5 218C275 215 277.5 200 282 190.272C286.5 180.544 283 168.5 277.5 155.538C273.1 145.168 256.945 133.323 249.417 128.698C262.048 138.17 263.627 149.222 265.206 155.538C266.785 161.853 265.206 183.957 263.627 190.272C262.048 196.587 260.469 202.903 255.733 210.797C257.312 220.27 254.154 247.11 250.996 259.741C247.839 272.371 247.839 294.475 247.839 303.948V303.948C247.839 313.421 232.84 316.578 224.156 313.421C215.472 310.263 203.631 313.421 191.001 316.578Z" fill="#F1A726"/>
<path d="M116.5 281.5C107.5 279 103 270 103 267.5C103 265 105.204 265.372 107.819 267.5C111.194 270.246 112 273.5 116.5 275C119.921 276.14 123.149 275.787 128 277C132 278 135 278 140.5 276C146 274 145 270 159 268.5C173 267 165 281.5 160 282.5C155 283.5 151 282 147.5 287.5C144 293 136 288 128 287.5C120 287 122.086 283.052 116.5 281.5Z" fill="#D86B27"/>
<path d="M143.345 125.249C144.608 129.038 144.924 134.196 144.924 136.301H154.397C157.555 136.301 163.87 131.565 168.606 131.565C173.343 131.565 181.237 128.407 187.552 128.407C193.868 128.407 209.656 129.986 215.971 129.986H236.496C239.022 129.986 253.337 136.301 260.179 139.459C259.126 137.354 256.389 132.512 253.863 129.986C250.706 126.828 182.816 81.042 176.501 76.3055C174.922 73.1478 163.87 68.4113 159.133 66.8325C155.344 65.5694 132.293 49.4653 121.242 41.5712C123.873 53.6755 129.767 79.7789 132.293 87.3573C135.451 96.8303 141.766 120.513 143.345 125.249Z" fill="#F1A726"/>
<path d="M132.584 114.488C133.847 118.277 134.163 123.435 134.163 125.54H143.636C146.793 125.54 153.109 120.803 157.845 120.803C162.582 120.803 170.476 117.646 176.791 117.646C183.107 117.646 198.895 119.224 205.21 119.224H225.735C228.261 119.224 242.576 125.54 249.417 128.697C248.365 126.592 245.628 121.751 243.102 119.224C239.944 116.067 172.055 70.2807 165.739 65.5442C164.161 62.3866 153.109 57.6501 148.372 56.0712C144.583 54.8082 121.532 38.7041 110.48 30.8099C113.112 42.9143 119.006 69.0177 121.532 76.596C124.69 86.069 131.005 109.752 132.584 114.488Z" fill="#FEE857"/>
<path d="M127.847 190.272C129.426 188.693 130.373 187.114 134.163 187.114C137.952 187.114 137.32 190.272 140.478 195.008" stroke="black" stroke-width="1.5" stroke-linecap="round" stroke-linejoin="round"/>
<path d="M194.5 230.5C189.93 231.746 187.939 236.981 184 238C177.602 239.655 175 240.969 168 242.5C163.604 243.462 160.833 247.5 161 248.5C162 254.5 178 256.5 186.264 254.5C192.116 253.084 196.02 243.03 203 242.5C210 241.969 208.729 235.079 212 230.5C217 223.5 212 221.5 212 213.5C212 202 204.183 195.332 200.474 198.166C196.765 201 200.913 201.18 203 206C205.087 210.82 203 215.764 203 220.5C203 225.236 200 229 194.5 230.5Z" fill="#F1A726"/>
<path d="M222.577 150.801C219.42 152.38 217.182 155.891 217.841 158.695C218.5 161.5 221.265 164.883 226.5 167.5C230.5 169.5 234 164.7 236 163.5C238.5 162 237.55 158.5 240 155.5C242.45 152.5 242.24 145.494 240 144C237 142 233.004 141 232.05 142.907C227.314 152.38 225.735 149.222 222.577 150.801Z" fill="#FEE857"/>
<path d="M223.736 151.894C220.579 153.473 219 156.631 219 159.788C220 161.5 222.314 161.984 223.736 159.788C225.159 157.593 222.736 154.644 227.659 152.593C230.35 151.472 231.159 154.792 233.659 152.593C235.44 151.027 235.659 148.763 235.659 147.093C235.659 145.093 234.5 143 233.209 144C228.473 153.473 226.894 150.315 223.736 151.894Z" fill="#F5F3DE"/>
<path d="M201.5 301C198.342 302.579 191 304.5 191 310C191 314 196.817 319.5 199.5 319.5C204 319.5 211.5 317.5 214.5 315.5C217.5 313.5 223 316.312 227.578 312.249C232.156 308.186 232.621 304.355 233.078 293.722C233.578 282.09 221.5 272 218.5 282.5C217.633 285.536 216.158 290.565 213 293.722C209.842 296.88 204.658 299.421 201.5 301Z" fill="#F1A726"/>
<path d="M197.316 297.632C194.158 299.211 189.422 302.369 189.422 305.527C190.948 307.684 194.663 311.9 197.316 311.5C200.632 311 202 307.527 205 305.527C208 303.527 218.183 308.027 221 305.527C223.817 303.027 226.043 297.632 226.5 287C227 275.367 215 275.5 215 280.5C215 283.658 213.104 286.581 209.947 289.738C206.789 292.896 200.474 296.054 197.316 297.632Z" fill="#FEE857"/>
<path d="M203 290.5C198.5 291.5 194.5 296.5 195 299.5C195.5 302.5 199.5 305 203 302.5C208.452 298.606 205 296.5 214 292C219.727 289.137 215.5 283 212.5 286C211 287.5 207.5 289.5 203 290.5Z" fill="#FFFDE7"/>
<path d="M131 211C125.5 210 122 210.5 119.5 212.5C117 214.5 115.296 219.592 116.5 222C117.704 224.408 125 223 126.5 221.5C128 220 127 214.5 131 216C135.705 217.764 138.5 216 138.5 214.5C138.5 213.5 136.5 212 131 211Z" fill="#FEE857"/>
<path d="M118 233.5C116 230.5 116.5 227 118.5 224C124.5 228 134.454 227.719 140 225.5C142.5 224.5 143.5 225.5 142 227.5C140.5 229.5 138.054 230.149 135.5 231C131 232.5 134.144 235.694 128.5 236.5C125 237 120 236.5 118 233.5Z" fill="#FEE857"/>
<path d="M145.5 230C145.5 224.5 143.5 221.5 141 219C138.5 216.5 143.106 217.435 144 219C146 222.5 148.25 223 149.5 224.5C151 226.3 153 225 154.5 229C156 233 153.5 234 152 235C150.5 236 145.5 235.5 145.5 230Z" fill="#D86B27"/>
<path d="M109 249.5C106 251.5 103 254.5 102 258C101 261.5 103 263.2 107 264C112 265 112 266 120.5 264C129 262 130.5 257 134 255C137.5 253 136.5 249.5 136 246.5C135.5 243.5 129.5 243.5 126 244C122.5 244.5 122.5 245.5 120 246.5C117.5 247.5 112 247.5 109 249.5Z" fill="#FEE857"/>
<path d="M110.5 186C106.5 190.5 105 193 105.5 195C106 197 112.7 201.6 117.5 202C123.5 202.5 123 193.5 125.5 192.5C128 191.5 129 189.5 131 188C133 186.5 133 186 135.5 188C138 190 138 189.5 140 195C142 200.5 142.5 192 142.5 189.5C142.5 187 141.5 182.5 144 178C146.5 173.5 145.5 167.5 145.5 162.5C145.5 157.5 147.5 153 148.5 147.5C149.5 142 146 137 145.5 140.5C145 144 145 145 144 147.5C143 150 140 153 137.5 156.5C134.758 160.338 128 166.5 125.5 169.5C123 172.5 121.5 175 120 176.5C117.736 178.764 114.5 181.5 110.5 186Z" fill="#FEE857"/>
<path d="M153.109 136.592C156.266 135.013 159.424 133.434 165.739 133.434C172.055 133.434 176.791 136.592 189.422 136.592" stroke="black" stroke-width="1.5" stroke-linecap="round" stroke-linejoin="round"/>
<path d="M224.156 215.533C227.314 215.533 230.471 215.533 232.05 210.797C233.629 206.06 233.629 204.481 235.208 199.745C236.787 195.008 236.787 187.114 235.208 183.956C233.629 180.799 224.156 177.641 219.419 179.22C214.926 180.718 213.104 190.272 216.262 195.008" stroke="#F1A726" stroke-width="1.5" stroke-linecap="round" stroke-linejoin="round"/>
<path d="M222.577 190.272C225.735 188.693 227.313 190.272 227.313 193.43C227.313 196.587 227.313 201.324 224.156 202.902C220.998 204.481 219.419 202.902 217.84 204.481C216.577 205.744 216.262 207.639 217.841 209.218" stroke="black" stroke-width="1.5" stroke-linecap="round" stroke-linejoin="round"/>
<path d="M168.897 161.853C156.266 160.274 153.109 155.538 153.109 152.38C153.109 151.197 154.438 149.793 156.266 148.333C162.582 147.444 170.476 147.644 176.791 148.333C183.069 149.019 189.422 153.959 189.422 157.117C189.422 160.274 181.528 163.432 168.897 161.853Z" fill="#F7D328"/>
<path d="M165.739 141.328C163.764 143.303 159.319 145.896 156.266 148.333M156.266 148.333C154.438 149.793 153.109 151.197 153.109 152.38C153.109 155.538 156.266 160.274 168.897 161.853C181.528 163.432 189.422 160.274 189.422 157.117C189.422 153.959 183.069 149.019 176.791 148.333C170.476 147.644 162.582 147.444 156.266 148.333Z" stroke="#F1A726" stroke-width="1.5" stroke-linecap="round" stroke-linejoin="round"/>
<path d="M168.897 161.853C159.424 160.274 159.424 152.38 161.003 147.643H170.476C175.212 147.643 179.949 149.222 179.949 149.222C183.106 153.959 178.37 163.432 168.897 161.853Z" fill="#FEE857"/>
<path d="M170.476 155.537C168.206 155.537 167.318 150.801 167.318 147.643C169.423 147.117 172.055 147.643 173.634 147.643C175.212 147.643 173.14 155.537 170.476 155.537Z" fill="#D86B27"/>
<path d="M315.5 283C319.5 285.5 328 290.5 329 288.5C330 286.5 320 279.333 316 276.5" stroke="black"/>
<path d="M341.086 283.343C341.058 283.395 341.03 283.448 341 283.5C341.028 283.448 341.056 283.396 341.086 283.343C342.882 279.911 339.052 276.97 342.5 275C343.873 274.216 340.43 271.62 339.5 271C337 269.333 339.5 265.5 342.5 267C344.5 268 349 269 349.5 268C350 267 345.5 263 344 262C341.779 260.519 343.5 256.5 346.5 258C348.5 259 350 259.5 351 259.5C355 259.5 352.723 253.387 353 252C353.5 249.5 356 247.5 358 248C360 248.5 353.928 264.244 351 270C348.261 275.383 343.026 279.874 341.086 283.343Z" fill="#BB6125"/>
<path d="M341.193 231.106C339.649 234.427 358.113 239.777 359.656 236.456C361.2 233.134 342.736 227.784 341.193 231.106Z" fill="#F7D328"/>
<path d="M346.314 236.203C346.776 234.146 356.314 235.694 356.017 237.735C355.721 239.775 353.529 240.248 351.194 239.73C348.859 239.212 346.083 237.232 346.314 236.203Z" fill="#F1A726"/>
<path d="M340.282 230.095C339.816 232.747 346.486 232.88 346.667 231.31C346.849 229.739 340.747 227.443 340.282 230.095Z" fill="#FDFBE6"/>
<path d="M154 310.5C150.5 314.5 147.5 319 147 323.5C146.5 328 156 330.5 159 326C161 323 159 318.5 163.5 315C166.5 312.667 165 308 165.5 306.5C166 305 170.5 303.5 170.5 301.5C170.5 298.95 166 298 163.5 301.5C161 305 157.5 306.5 154 310.5Z" fill="#FEE857"/>
<path d="M170.342 109.013C164.842 112.013 158.343 109.013 155.342 106.013C152.342 103.013 132.142 63.413 135.342 63.013C139.342 62.513 148.842 76.513 155.342 85.513C161.842 94.513 175.842 106.013 170.342 109.013Z" fill="#FFFDE7"/>
<path d="M148 315C145.5 317.5 144 323.5 146 327C148 330.5 150.7 324.6 151.5 323C152.5 321 152 316 151.5 314.5C151 313 150.5 312.5 148 315Z" fill="#FFFDE7"/>
<path d="M187.5 271.5C181.5 272 182 268.5 185.5 266C189 263.5 201 258 212.5 258C219.171 258 223 250 224.5 246C226 242 227.5 237.5 229 240C230.5 242.5 230 244 227.5 250C225 256 227.5 261.5 223 266C218.5 270.5 208 266 203.5 266C199 266 193.5 271 187.5 271.5Z" fill="#D86B27"/>
<path d="M345.32 219.355C348.384 219.71 354.579 221.081 360.64 221.132C366.701 221.183 357.836 213.412 347.348 214.479C336.859 215.546 342.256 219 345.32 219.355Z" fill="#F1A726"/>
<path d="M356.21 188.168C358.668 187.985 363.769 188.179 368.502 187.25C373.235 186.321 364.779 181.008 356.818 183.617C348.857 186.225 353.751 188.352 356.21 188.168Z" fill="#F1A726"/>
<path d="M309.784 305.828C311.919 307.06 316.025 310.093 320.459 311.991C324.894 313.889 320.896 304.736 312.849 302.409C304.802 300.081 307.649 304.595 309.784 305.828Z" fill="#BB6125"/>
<path d="M73.5 42.5C66 47.5 53.5 59.5 50 65C46.5 70.5 59.7 61.8 62.5 59C66 55.5 66.5 52 72 48.5C77.5 45 84 46 89.5 42.5C95 39 96.5 33.5 98.5 31C100.5 28.5 97 28.5 92.5 31C88 33.5 81 37.5 73.5 42.5Z" fill="#FFFDE7"/>
<path d="M113.5 206.5C111.5 202.5 105.5 198.5 105.5 195C105.5 191.5 110.8 198.3 112 199.5C113.5 201 119 204.5 121.5 204.5C124 204.5 125 203 128 203C131 203 133 204 133 205.5C133 207 132 209.5 131 211C130 212.5 129 212.5 124 212.5H124C119 212.5 115.5 210.5 113.5 206.5Z" fill="#D86B27"/>
</svg>
